PathFileType	4	(X/Y/Z)	C:\Users\Basilio\Documents\Thesis Gigler\squatting_fais\c3dfiles\058\SLS_front_pre3\markers_experimental.trc
DataRate	CameraRate	NumFrames	NumMarkers	Units	OrigDataRate	OrigDataStartFrame	OrigNumFrames
200.000000	200.000000	4	61	mm	200.000000	0	1263
Frame#	Time	FHD			LBHD			RBHD			C7			T10			CLAV			LSHO			LUUPA			LMUPA			LDUPA			LLEP			LMEP			LRAD			LUL			LRFIN			RSHO			RUPA1			RMUPA			RDUPA			RLEP			RMEP			RRAD			RUL			RUFIN			LASI			RASI			USACR			LSACR			RSACR			LTHI1			LTHI2			LTHI3			LTHI4			LLFC			LMFC			LTIB1			LTIB2			LTIB3			LTIB4			LLMAL			LMMAL			LHEE			LMT1			LMT2			LMT5			RTHI			RTHI2			RTHI3			RTHI4			RLFC			RMFC			RTIB1			RTIB2			RTIB3			RTIB4			RLMAL			RMMAL			RHEE			RMT1			RMT2			RMT5			
		X1	Y1	Z1	X2	Y2	Z2	X3	Y3	Z3	X4	Y4	Z4	X5	Y5	Z5	X6	Y6	Z6	X7	Y7	Z7	X8	Y8	Z8	X9	Y9	Z9	X10	Y10	Z10	X11	Y11	Z11	X12	Y12	Z12	X13	Y13	Z13	X14	Y14	Z14	X15	Y15	Z15	X16	Y16	Z16	X17	Y17	Z17	X18	Y18	Z18	X19	Y19	Z19	X20	Y20	Z20	X21	Y21	Z21	X22	Y22	Z22	X23	Y23	Z23	X24	Y24	Z24	X25	Y25	Z25	X26	Y26	Z26	X27	Y27	Z27	X28	Y28	Z28	X29	Y29	Z29	X30	Y30	Z30	X31	Y31	Z31	X32	Y32	Z32	X33	Y33	Z33	X34	Y34	Z34	X35	Y35	Z35	X36	Y36	Z36	X37	Y37	Z37	X38	Y38	Z38	X39	Y39	Z39	X40	Y40	Z40	X41	Y41	Z41	X42	Y42	Z42	X43	Y43	Z43	X44	Y44	Z44	X45	Y45	Z45	X46	Y46	Z46	X47	Y47	Z47	X48	Y48	Z48	X49	Y49	Z49	X50	Y50	Z50	X51	Y51	Z51	X52	Y52	Z52	X53	Y53	Z53	X54	Y54	Z54	X55	Y55	Z55	X56	Y56	Z56	X57	Y57	Z57	X58	Y58	Z58	X59	Y59	Z59	X60	Y60	Z60	X61	Y61	Z61	

1	0	-249.1860961914063	1814.719116210938	-778.3837890625002	-409.9484863281251	1761.405029296875	-839.395690917969	-247.9341735839844	1820.771118164063	-920.654724121094	-426.0047302246095	1602.294311523438	-866.6119384765627	-423.1672363281251	1292.195922851563	-857.2912597656252	-264.9578247070313	1559.41796875	-844.9750976562502	-270.7866210937501	1601.631958007813	-1022.337097167969	-327.4008789062501	1383.3779296875	-1137.22119140625	-280.3838195800782	1369.52001953125	-1131.635375976563	-310.2755737304688	1316.00390625	-1137.557250976563	-299.2230529785157	1246.124389648438	-1134.770385742188	-330.2952880859376	1228.176391601563	-1074.912353515625	-175.8380126953125	1004.55859375	-1071.249267578125	-208.3287963867188	994.4387817382815	-1146.373779296875	-131.0493316650391	914.4819946289065	-1093.17724609375	-308.6640625000001	1598.73779296875	-665.3604736328126	-368.5588684082032	1370.775512695313	-570.3860473632814	-320.9901733398438	1358.29833984375	-575.0162963867189	-346.0447998046876	1305.072143554688	-565.8565063476564	-345.7685852050782	1239.096069335938	-568.5684204101564	-362.4565124511719	1214.799682617188	-646.4585571289064	-206.0513000488282	998.0316162109377	-595.8038940429689	-250.1513366699219	993.3274536132815	-527.4161987304689	-170.1271209716797	919.5598754882815	-562.5384521484376	-236.0051574707032	1096.405883789063	-978.6567382812502	-239.3140563964844	1095.394287109375	-735.4824218750001	-430.6655273437501	1171.93896484375	-848.1607055664065	-436.2792358398439	1140.187744140625	-876.0222778320315	-434.1712341308595	1139.51318359375	-818.4110107421877	-305.4987792968751	817.0798339843752	-1061.001708984375	-284.6279602050782	734.5005493164064	-1056.787475585938	-239.6490020751954	733.0855712890626	-1034.611694335938	-318.0876159667969	685.5117797851564	-1053.894287109375	-333.1605834960938	583.0374755859376	-1046.57080078125	-305.1320190429688	571.5278320312501	-923.402038574219	-288.4671325683594	443.058563232422	-1019.416320800781	-348.8992919921876	412.595916748047	-1070.367553710938	-307.1846618652344	401.5257568359376	-1052.922729492188	-309.8939819335938	317.6950683593751	-1031.86865234375	-386.7693176269532	125.5052947998047	-1044.302368164063	-352.8981323242188	139.656723022461	-957.8881835937502	-444.5444335937501	109.0022811889649	-986.9643554687502	-226.7909698486329	62.93861770629884	-980.2387695312502	-225.1215057373047	61.31949996948244	-1027.369384765625	-281.2041931152344	43.31952285766602	-1077.959350585938	-350.9092712402344	887.9586181640627	-659.6715087890626	-316.3529357910157	831.1170043945315	-657.3321533203126	-283.7534484863282	831.659606933594	-661.8095703125001	-350.5172729492188	753.9019165039064	-670.4638061523439	-355.5638732910157	572.8572387695314	-686.1773071289064	-317.2754211425782	552.9869384765626	-816.5534667968752	-302.7263793945313	361.6101684570313	-755.9201049804689	-343.0971679687501	288.6384887695313	-683.9858398437501	-308.8969421386719	280.7126159667969	-716.0218505859376	-315.0974731445313	233.5706939697266	-746.9037475585939	-370.6328430175782	126.5334167480469	-700.6147460937501	-342.6345520019532	141.8735656738282	-789.3447875976565	-438.4643554687501	103.3184280395508	-757.4757690429689	-228.3219604492188	58.52548980712892	-771.5217285156252	-220.8770294189454	62.25009536743165	-719.2239379882814	-270.8047485351563	31.95769691467286	-667.1622314453126	
2	0.005	-249.5723571777344	1814.673706054688	-777.823913574219	-410.2669982910157	1761.38330078125	-838.8716430664065	-248.0836944580079	1820.760375976563	-920.172302246094	-426.2114562988282	1602.270629882813	-866.2507934570315	-423.3699645996095	1292.22607421875	-857.019470214844	-265.0477905273438	1559.498413085938	-844.5405273437502	-270.8100891113282	1601.639282226563	-1021.900329589844	-326.7279663085938	1383.334106445313	-1136.967651367188	-279.7963256835938	1369.673706054688	-1131.14208984375	-309.3715209960938	1316.047119140625	-1137.097045898438	-298.1789245605469	1246.227294921875	-1134.4091796875	-328.7739257812501	1228.141723632813	-1074.68310546875	-175.1828918457032	1004.454284667969	-1070.987060546875	-207.1033172607422	994.6459960937502	-1146.298095703125	-129.9964752197266	914.5147094726565	-1093.39892578125	-308.8411560058594	1598.724365234375	-664.8643798828126	-368.4549255371094	1370.7626953125	-569.8386840820314	-320.8578796386719	1358.3408203125	-574.4144287109376	-345.7804565429688	1305.220092773438	-565.0083618164064	-345.2774047851563	1239.093139648438	-567.6878051757814	-362.2237243652344	1214.752075195313	-645.5111083984376	-205.4340209960938	998.1914062500002	-595.2647705078126	-249.1802520751954	993.649841308594	-526.4297485351564	-169.4636688232422	919.7628173828127	-562.1547241210939	-236.3185729980469	1096.394775390625	-978.2395629882815	-239.8261413574219	1095.52099609375	-735.0513916015626	-430.8981323242189	1171.908203125	-847.8286743164065	-436.3896484375001	1140.153442382813	-875.7365722656252	-434.3484497070314	1139.54345703125	-818.1739501953127	-305.6588745117188	817.0664672851565	-1060.739868164063	-284.8358154296876	734.4722900390626	-1056.475830078125	-239.7841949462891	733.1090087890626	-1034.331909179688	-318.2999877929688	685.5128784179689	-1053.64794921875	-333.3343505859376	583.0200805664064	-1046.4287109375	-305.4775085449219	571.5037231445314	-923.244567871094	-288.7290649414063	443.172332763672	-1019.330932617188	-348.9960937500001	412.6175231933595	-1070.325561523438	-307.4277343750001	401.5195312500001	-1052.827880859375	-309.9763793945313	317.7033386230469	-1031.890747070313	-386.8372802734376	125.4533843994141	-1044.404907226563	-353.0025329589844	139.5923614501953	-957.963806152344	-444.5457458496095	108.9678344726563	-987.070495605469	-226.7996826171876	62.98202896118165	-980.3059082031252	-225.146224975586	61.28744506835939	-1027.449829101563	-281.1868591308594	43.29863739013673	-1078.002563476563	-351.0525207519532	887.980407714844	-659.4260864257814	-316.5160522460938	831.1339111328127	-657.0259399414064	-284.0668640136719	831.7766113281252	-661.3139038085939	-350.5992126464844	753.8199462890626	-670.1853027343751	-355.4127502441407	572.8870849609376	-685.9512939453126	-317.0343627929688	553.0240478515626	-816.2731933593752	-302.6371765136719	361.5888366699219	-755.7217407226564	-343.0418395996094	288.6247558593751	-683.8543090820314	-308.8131713867188	280.7040405273438	-715.9146728515626	-314.9709777832032	233.6256713867188	-746.8442382812501	-370.6203002929688	126.5588684082032	-700.6173706054689	-342.6134033203126	141.9488677978516	-789.3364257812502	-438.4490356445314	103.3403472900391	-757.4351196289064	-228.3352813720704	58.49943923950197	-771.5179443359377	-220.8824920654297	62.23533248901369	-719.2499389648439	-270.7984313964844	31.9931869506836	-667.1738281250001	
3	0.01	-249.9177398681641	1814.650146484375	-777.2907714843752	-410.6667480468751	1761.396484375	-838.2142333984377	-248.3651428222657	1820.750610351563	-919.6641235351565	-426.474578857422	1602.289794921875	-865.8565673828127	-423.5490722656251	1292.164184570313	-856.697448730469	-265.5289916992188	1559.418334960938	-844.0257568359377	-271.2565917968751	1601.583618164063	-1021.295288085938	-326.0106811523438	1383.302856445313	-1136.5361328125	-279.0404968261719	1369.739379882813	-1130.634399414063	-308.4837646484376	1316.06982421875	-1136.692138671875	-296.9004516601563	1246.3671875	-1133.978515625	-327.9823913574219	1228.140991210938	-1074.609497070313	-173.8372344970703	1004.483276367188	-1070.779663085938	-205.959701538086	994.9053955078127	-1146.157592773438	-129.482177734375	914.212585449219	-1093.384643554688	-309.1293640136719	1598.666625976563	-664.3797607421876	-368.3306884765626	1370.817504882813	-569.3538208007814	-320.6542968750001	1358.526245117188	-574.2390747070314	-345.4776000976563	1305.314697265625	-564.1109008789064	-344.8292846679688	1239.128173828125	-566.7482299804689	-362.0045166015626	1214.72412109375	-644.4733886718751	-204.8026580810547	998.4199829101565	-594.5184936523439	-247.7471008300782	994.0705566406252	-525.2757568359376	-168.5876617431641	920.050964355469	-561.6406250000001	-236.3629150390626	1096.384155273438	-977.8391723632815	-240.0769805908204	1095.688110351563	-734.5206298828126	-431.1325683593751	1171.872680664063	-847.4365844726565	-436.5698852539064	1140.131713867188	-875.3958129882815	-434.5123596191407	1139.537719726563	-817.9355468750002	-305.8388061523438	817.0493774414065	-1060.477294921875	-285.0073852539063	734.3918457031251	-1056.110229492188	-240.1679382324219	733.0407104492189	-1033.953125	-318.5735778808594	685.5150146484376	-1053.35693359375	-333.6116638183594	582.9824829101564	-1046.252807617188	-305.8463745117188	571.4567260742189	-923.0534667968752	-288.8062438964844	443.2329711914064	-1019.277038574219	-349.2347106933594	412.6349182128907	-1070.244018554688	-307.6419677734376	401.5252380371095	-1052.73583984375	-310.0174865722657	317.7611999511719	-1031.862182617188	-386.8453979492189	125.4018630981446	-1044.454833984375	-353.1431579589844	139.5951538085938	-957.988952636719	-444.5521850585939	108.9497909545899	-987.146423339844	-226.7947692871094	63.02384567260744	-980.322204589844	-225.1130676269532	61.29049682617189	-1027.497436523438	-281.2189636230469	43.23168945312501	-1078.023193359375	-351.2154541015626	887.943786621094	-659.1434326171876	-316.6250915527344	831.1293945312502	-656.8105468750001	-284.3250732421876	831.7662353515627	-660.8336181640626	-350.6256408691407	753.8206176757814	-669.8771362304689	-355.1619873046876	572.8630371093751	-685.7490234375001	-316.8179626464844	553.0281372070314	-815.9798583984377	-302.5167541503907	361.5516662597657	-755.5615844726564	-342.9878540039063	288.5618591308594	-683.7833862304689	-307.8369750976563	280.3131713867188	-715.2416992187501	-314.8746643066407	233.6701965332032	-746.8024291992189	-370.5748291015626	126.5834350585938	-700.5570068359376	-342.5953979492188	141.9510955810547	-789.310729980469	-438.4638977050782	103.3391494750977	-757.4747314453126	-228.4167785644532	58.52972793579103	-771.505310058594	-220.8708953857422	62.30458068847658	-719.2337036132814	-270.8047485351563	32.00694274902344	-667.1713256835939	
4	0.015	-250.4832153320313	1814.624633789063	-776.6195068359377	-410.9227600097657	1761.345947265625	-837.837341308594	-248.6847229003907	1820.689086914063	-919.0622558593752	-426.7717285156251	1602.362548828125	-865.3965454101565	-423.8188476562501	1292.119750976563	-856.3770141601565	-265.7814636230469	1559.442993164063	-843.471374511719	-271.6434936523438	1601.564208984375	-1020.680847167969	-325.3112487792969	1383.236083984375	-1136.242309570313	-278.4198608398438	1369.808471679688	-1130.104736328125	-307.7048034667969	1316.094604492188	-1136.360473632813	-295.5067138671876	1246.555786132813	-1133.596435546875	-327.1473693847657	1228.144653320313	-1074.428588867188	-173.2958068847657	1004.373901367188	-1070.554077148438	-204.8699340820313	995.1008911132815	-1146.006225585938	-128.4089660644532	914.068542480469	-1093.344116210938	-309.2814636230469	1598.659545898438	-663.9206542968751	-368.0799560546876	1370.813354492188	-568.6668701171876	-320.3311157226563	1358.645629882813	-573.5366210937501	-345.1955566406251	1305.281372070313	-563.4283447265626	-344.1686401367188	1239.245971679688	-565.8510131835939	-361.5093383789063	1214.660888671875	-643.6068115234376	-203.8587493896485	998.5594482421877	-593.8151855468751	-246.6711883544922	994.4619140625002	-524.1628417968751	-168.4509429931641	919.7058105468752	-561.3332519531251	-236.5167846679688	1096.368774414063	-977.3630981445315	-240.0924682617188	1095.781616210938	-734.0016479492189	-431.3430786132814	1171.875854492188	-847.090026855469	-436.7526245117189	1140.097412109375	-875.0615844726565	-434.7838134765626	1139.531127929688	-817.4654541015627	-306.0238037109376	817.073425292969	-1060.196899414063	-285.2306518554688	734.3493652343751	-1055.8076171875	-240.4516754150391	732.9974975585939	-1033.56005859375	-318.7346191406251	685.5191650390626	-1053.103637695313	-333.8220520019532	582.9998168945314	-1046.082641601563	-306.0928649902344	571.4351196289064	-922.9257812500002	-289.1912841796876	443.1705932617189	-1019.117004394531	-349.4289550781251	412.6263732910157	-1070.16015625	-307.8771972656251	401.528778076172	-1052.650512695313	-310.3194274902344	317.7015075683594	-1031.747314453125	-386.9220275878907	125.3182983398438	-1044.479248046875	-353.2213134765626	139.5452575683594	-958.0615234375002	-444.5975036621095	108.8888473510742	-987.1848144531252	-226.8184051513672	62.98202133178712	-980.3945312500002	-225.2078552246094	61.29697036743165	-1027.487426757813	-281.2401123046876	43.20305633544923	-1078.062255859375	-351.4615783691407	887.9050292968752	-658.8283691406251	-316.7066040039063	831.2068481445315	-656.4881591796876	-284.3695983886719	831.785095214844	-660.4840698242189	-350.6202697753907	753.8014526367189	-669.6736450195314	-354.8243408203126	572.7919311523439	-685.5226440429689	-316.6296997070313	553.0357055664064	-815.702087402344	-302.3375854492188	361.4594421386719	-755.3968505859376	-342.8911437988282	288.5038757324219	-683.7057495117189	-307.7823486328126	280.3014221191407	-715.0831298828126	-314.8590393066407	233.5959472656251	-746.6781616210939	-370.5662536621094	126.5592575073242	-700.5499267578126	-342.5508117675782	141.9967956542969	-789.296325683594	-438.4676818847657	103.3639144897461	-757.4857177734376	-228.4441986083985	58.51381683349611	-771.5247802734377	-220.8628997802735	62.33979415893556	-719.2285766601564	-270.8047790527344	32.02802658081055	-667.2093505859376	
